<svg id="SvgjsSvg1026" xmlns="http://www.w3.org/2000/svg" version="1.1" xmlns:xlink="http://www.w3.org/1999/xlink" xmlns:svgjs="http://svgjs.com/svgjs" width="13" height="19" viewBox="0 0 13 19"><title>Forma 1</title><desc>Created with Avocode.</desc><defs id="SvgjsDefs1027"></defs><path id="SvgjsPath1028" d="M2571.07 9300.89L2579.9 9292.26C2580.04 9292.12 2580.04 9291.880000000001 2579.9 9291.74L2571.07 9283.11C2571 9283.04 2570.9100000000003 9283 2570.81 9283C2570.71 9283 2570.61 9283.04 2570.54 9283.11L2568.11 9285.49C2568.04 9285.56 2568 9285.65 2568 9285.75C2568 9285.84 2568.04 9285.94 2568.11 9286.01L2574.23 9292L2568.11 9297.99C2567.9700000000003 9298.13 2567.9700000000003 9298.369999999999 2568.11 9298.51L2570.54 9300.89C2570.69 9301.039999999999 2570.93 9301.039999999999 2571.07 9300.89Z " fill="#383838" fill-opacity="1" transform="matrix(1,0,0,1,-2568,-9283)"></path></svg>